<svg width="18" height="18" viewBox="0 0 18 18" version="1.1" xmlns="http://www.w3.org/2000/svg" xmlns:xlink="http://www.w3.org/1999/xlink">
<g id="Canvas" fill="none">
<g id="cancel(8)" opacity="0.34">
<g id="Vector">
<path d="M 11.589 9.28767C 11.4247 9.12329 11.4247 8.87671 11.589 8.71233L 17.7534 2.54795C 17.9178 2.38356 18 2.13699 18 1.9726C 18 1.80822 17.9178 1.56164 17.7534 1.39726L 16.6027 0.246575C 16.4384 0.0821918 16.1918 0 16.0274 0C 15.7808 0 15.6164 0.0821918 15.4521 0.246575L 9.28767 6.41096C 9.12329 6.57534 8.87671 6.57534 8.71233 6.41096L 2.54795 0.246575C 2.38356 0.0821918 2.13699 0 1.9726 0C 1.80822 0 1.56164 0.0821918 1.39726 0.246575L 0.246575 1.39726C 0.0821918 1.56164 0 1.80822 0 1.9726C 0 2.13699 0.0821918 2.38356 0.246575 2.54795L 6.41096 8.71233C 6.57534 8.87671 6.57534 9.12329 6.41096 9.28767L 0.246575 15.4521C 0.0821918 15.6164 0 15.863 0 16.0274C 0 16.1918 0.0821918 16.4384 0.246575 16.6027L 1.39726 17.7534C 1.56164 17.9178 1.80822 18 1.9726 18C 2.13699 18 2.38356 17.9178 2.54795 17.7534L 8.71233 11.589C 8.87671 11.4247 9.12329 11.4247 9.28767 11.589L 15.4521 17.7534C 15.6164 17.9178 15.863 18 16.0274 18C 16.1918 18 16.4384 17.9178 16.6027 17.7534L 17.7534 16.6027C 17.9178 16.4384 18 16.1918 18 16.0274C 18 15.863 17.9178 15.6164 17.7534 15.4521L 11.589 9.28767Z" fill="white"/>
</g>
</g>
</g>
</svg>

