<?xml version="1.0" encoding="utf-8"?>
<!-- Generator: Adobe Illustrator 21.1.0, SVG Export Plug-In . SVG Version: 6.00 Build 0)  -->
<svg version="1.1" id="_x3C_Слой_x3E_" xmlns="http://www.w3.org/2000/svg" xmlns:xlink="http://www.w3.org/1999/xlink" x="0px"
	 y="0px" viewBox="0 0 218 200.6" style="enable-background:new 0 0 218 200.6;" xml:space="preserve">
<style type="text/css">
	.st0{fill:#FFFFFF;}
	.st1{fill-rule:evenodd;clip-rule:evenodd;fill:#FFFFFF;}
</style>
<path class="st0" d="M81.4,110.8L57.7,97.2l10.7-6.1l23.7,13.6l13.1-7.5L48.1,64.5L35,72l21.6,12.3l-10.7,6.1L24.3,78.1l-13.4,7.6
	l57.1,32.7L81.4,110.8z"/>
<path class="st0" d="M127.9,84.2L70.7,51.6l-13.4,7.6l57.1,32.7L127.9,84.2z"/>
<path class="st0" d="M122.8,51.3l10,5.7l5.2-3c0.4,0.2,0.8,0.4,1.2,0.6c0.4,0.2,1,0.5,1.7,1c3.3,1.9,5.2,3.5,5.9,4.8
	c0.6,1.3,0.1,2.5-1.7,3.5c-1.8,1-3.9,1.3-6.2,0.7c-2.3-0.6-6.7-2.7-13-6.3l-3.9-2.2l-5.6-3.2c-6.4-3.6-10-6.1-11.1-7.5
	c-1-1.4-0.6-2.6,1.3-3.7c1.6-0.9,3.4-1.2,5.5-0.8c2.1,0.4,4.8,1.5,8.1,3.4l0.7,0.4l12.7-7.3c-0.3-0.2-0.6-0.4-1.1-0.6
	c-0.4-0.3-0.8-0.5-1-0.6c-6.1-3.5-12-5.3-17.9-5.4c-5.9-0.1-11.7,1.4-17.3,4.6c-3.6,2.1-6.1,4.2-7.4,6.4c-1.3,2.2-1.6,4.5-0.6,6.8
	c0.6,1.6,2.4,3.6,5.4,5.8c2.9,2.3,7.3,5.1,13.1,8.4c8.1,4.6,14.2,7.7,18.3,9.2c4.1,1.5,8.1,2.3,11.9,2.4c3.1,0.1,6.1-0.2,8.9-0.8
	c2.8-0.6,5.4-1.6,7.7-2.9c2.1-1.2,3.5-2.4,4.4-3.8c0.9-1.4,1.2-2.9,1-4.5l4.2,1.7l9.2-5.3L140.9,41L122.8,51.3z"/>
<path class="st0" d="M194.3,46.3l-23.7-13.6l10.7-6.1L205,40.1l13.1-7.5L160.9,0l-13.1,7.5l21.6,12.3l-10.7,6.1l-21.6-12.3
	l-13.4,7.6l57.1,32.7L194.3,46.3z"/>
<path class="st0" d="M91.3,159.5c0,4.9-0.4,8.4-1.2,10.7c-0.8,2.3-2.2,4-4.3,5.1c-2.2,1.2-3.7,0.9-4.5-1.2c-0.8-2-1.2-8.5-1.2-19.4
	v-1.3c0-10.2,0.4-16.7,1.2-19.5c0.8-2.8,2.3-4.9,4.5-6.1c2-1.1,3.4-1,4.3,0.5c0.9,1.5,1.3,4.6,1.4,9.4l13.1-7.4v-0.7
	c0-8.6-1.6-14.1-4.8-16.6c-3.2-2.5-7.9-1.9-14.3,1.7c-3.7,2.1-6.8,4.7-9.5,7.7c-2.7,3.1-4.8,6.6-6.4,10.6c-1.2,2.9-2,6.4-2.5,10.6
	c-0.5,4.2-0.8,10.6-0.8,19.1c0,8.5,0.2,14.6,0.8,18.2c0.5,3.6,1.3,6.2,2.5,7.8c1.7,2.2,3.8,3.2,6.5,3.2c2.7,0,5.9-1.1,9.7-3.2
	c6.4-3.6,11.1-8.4,14.2-14.3c3.1-5.9,4.6-13.2,4.6-21.8c0-1,0-1.7,0-2.2c0-0.5,0-0.9-0.1-1.3l-13.3,7.6V159.5z"/>
<path class="st0" d="M107.7,141.7c0,8.1,0.2,13.7,0.6,16.9c0.4,3.2,1.1,5.5,2.2,7.1c1.4,2.2,3.4,3.4,5.8,3.4c2.4,0,5.6-1.1,9.4-3.3
	c4.2-2.4,7.6-5,10.2-8c2.6-3,4.6-6.4,6-10.4c0.8-2.3,1.4-4.9,1.8-7.6c0.4-2.7,0.5-6.7,0.5-11.8V83l-13.4,7.6v44.3
	c0,6.6-0.3,10.9-1,12.9c-0.7,2-1.9,3.6-3.7,4.6c-1.8,1-3,0.9-3.7-0.3c-0.7-1.2-1-5.1-1-11.9V95.9l-13.7,7.8V141.7z"/>
<path class="st0" d="M161.3,84.8c0.1-0.1,0.3-0.2,0.5-0.3c0.2-0.1,0.5-0.3,0.9-0.5c2.3-1.3,4.1-1.7,5.4-1.1c1.3,0.6,1.9,2.2,1.9,4.6
	c0,2.8-0.6,5.3-1.9,7.4c-1.3,2.1-3.2,3.9-5.9,5.4l-0.9,0.5L161.3,84.8z M161.3,113l0.9-0.5c3-1.7,5.2-2.3,6.6-1.7
	c1.4,0.6,2.1,2.4,2.1,5.4c0,3.2-0.7,6-2.1,8.5c-1.4,2.4-3.6,4.5-6.4,6.1l-1.2,0.7V113z M163.8,142.4c4.6-2.6,8-5,10.2-7
	c2.2-2,4.1-4.5,5.6-7.2c1.6-2.9,2.8-6,3.7-9.3c0.9-3.3,1.3-6.5,1.3-9.7c0-3.8-0.7-6.7-2-8.7c-1.3-2-3.2-3.1-5.8-3.2
	c2.2-3.5,3.8-6.7,4.8-9.7c1-2.9,1.5-6,1.5-9c0-3.4-0.5-6.1-1.6-8c-1.1-1.9-2.6-3-4.7-3.4c-1.4-0.2-3.1,0-5,0.7
	c-1.9,0.7-5.1,2.2-9.5,4.8l-14.5,8.3v70.7L163.8,142.4z"/>
<path class="st0" d="M218,111.6V97.2l-18,10.3V92.1l16.6-9.5V68.4L200,77.9v-13l18-10.3V40.9l-31.5,17.9v70.7L218,111.6z"/>
<path class="st1" d="M0,91.8v76.3l59.2,32.5v-76.3L0,91.8z M53.8,191.7l-49.2-27v-63.8l49.2,27V191.7z"/>
</svg>
