<?xml version="1.0" encoding="utf-8"?>
<!-- Generator: Adobe Illustrator 21.1.0, SVG Export Plug-In . SVG Version: 6.00 Build 0)  -->
<svg version="1.1" id="Слой_1" xmlns="http://www.w3.org/2000/svg" xmlns:xlink="http://www.w3.org/1999/xlink" x="0px" y="0px"
	 viewBox="0 0 87.5 90" style="enable-background:new 0 0 87.5 90;" xml:space="preserve">
<style type="text/css">
	.st0{clip-path:url(#SVGID_2_); fill:#ffffff;}
</style>
<g>
	<defs>
		<rect id="SVGID_1_" width="87.5" height="90"/>
	</defs>
	<clipPath id="SVGID_2_">
		<use xlink:href="#SVGID_1_"  style="overflow:visible;"/>
	</clipPath>
	<path class="st0" d="M32.5,60H35c4.1,0,7.5-3.4,7.5-7.5S39.1,45,35,45h-7.5v20h5V60z M32.5,50H35c1.4,0,2.5,1.1,2.5,2.5
		c0,1.4-1.1,2.5-2.5,2.5h-2.5V50z"/>
	<polygon class="st0" points="67.5,60 75,60 75,55 67.5,55 67.5,50 77.5,50 77.5,45 62.5,45 62.5,65 67.5,65 	"/>
	<path class="st0" d="M60,57.5v-5c0-4.1-3.4-7.5-7.5-7.5H45v20h7.5C56.6,65,60,61.6,60,57.5 M50,50h2.5c1.4,0,2.5,1.1,2.5,2.5v5
		c0,1.4-1.1,2.5-2.5,2.5H50V50z"/>
	<path class="st0" d="M70,25L45,0H10C4.5,0,0,4.5,0,10v70c0,5.5,4.5,10,10,10h50c5.5,0,10-4.5,10-10v-5h17.5V35H70V25z M42.5,8.1
		l19.4,19.4H42.5V8.1z M82.5,70h-60V40h60V70z"/>
</g>
</svg>
