<?xml version="1.0" encoding="utf-8"?>
<!-- Generator: Adobe Illustrator 21.1.0, SVG Export Plug-In . SVG Version: 6.00 Build 0)  -->
<svg version="1.1" id="Слой_1" xmlns="http://www.w3.org/2000/svg" xmlns:xlink="http://www.w3.org/1999/xlink" x="0px" y="0px"
	 viewBox="0 0 31 68.5" style="enable-background:new 0 0 31 68.5;" xml:space="preserve">
<style type="text/css">
	
		.st0{fill-rule:evenodd;clip-rule:evenodd;fill:#FFFFFF;stroke:#FFFFFF;stroke-width:5;stroke-linecap:round;stroke-linejoin:round;stroke-miterlimit:10;}
</style>
<path class="st0" d="M22.2,20.4c-2.7,1.1-5.4,0.9-8.1,1.2c-2.5,5.5-3.1,13.3-1.8,20c0.4,1.9,1.2,5.6,2.4,6.6c2,1.7,7.3-1.3,9.7-0.1
	c1.7,4.8,3.6,9.6,4.1,14.3c-5.6,5.9-13.6,4-19-2.5c-6.5-7.9-7.1-17.9-7-26.5c0.1-4.8,0.5-8.9,1.4-13.1c0.9-4.1,2.6-9.5,5.4-12.8
	c4.5-5.2,8.7-5.4,14.2-5.1c1.2,0.4,3.3,3.2,4.3,4.6C26.9,11.6,24.2,16,22.2,20.4z"/>
</svg>
